<?xml version="1.0" encoding="UTF-8" standalone="no"?>
<!-- Created with Inkscape (http://www.inkscape.org/) -->

<svg
   width="104.54657mm"
   height="103.50575mm"
   viewBox="0 0 104.54657 103.50575"
   version="1.1"
   id="svg5"
   sodipodi:docname="Logo.svg"
   inkscape:version="1.2.2 (732a01da63, 2022-12-09)"
   inkscape:export-filename="..\..\JavaScript\pathfinding-visualizer\images\logo.svg"
   inkscape:export-xdpi="96"
   inkscape:export-ydpi="96"
   xmlns:inkscape="http://www.inkscape.org/namespaces/inkscape"
   xmlns:sodipodi="http://sodipodi.sourceforge.net/DTD/sodipodi-0.dtd"
   xmlns="http://www.w3.org/2000/svg"
   xmlns:svg="http://www.w3.org/2000/svg">
  <sodipodi:namedview
     id="namedview7"
     pagecolor="#ffffff"
     bordercolor="#000000"
     borderopacity="0.25"
     inkscape:showpageshadow="2"
     inkscape:pageopacity="0.0"
     inkscape:pagecheckerboard="0"
     inkscape:deskcolor="#d1d1d1"
     inkscape:document-units="mm"
     showgrid="false"
     inkscape:zoom="1"
     inkscape:cx="420"
     inkscape:cy="470.5"
     inkscape:window-width="1718"
     inkscape:window-height="1378"
     inkscape:window-x="-7"
     inkscape:window-y="0"
     inkscape:window-maximized="0"
     inkscape:current-layer="layer1" />
  <defs
     id="defs2" />
  <g
     inkscape:label="Layer 1"
     inkscape:groupmode="layer"
     id="layer1"
     transform="translate(-51.423188,-78.334654)">
    <g
       id="g8937">
      <path
         id="path3617"
         style="fill:#f69489;stroke-width:2.74942"
         d="m 128.09067,90.650528 a 12.599202,12.315875 0 0 1 -12.5992,12.315872 12.599202,12.315875 0 0 1 -12.5992,-12.315872 12.599202,12.315875 0 0 1 12.5992,-12.315875 12.599202,12.315875 0 0 1 12.5992,12.315875 z" />
      <path
         id="path3617-0"
         style="fill:#ffd086;stroke-width:2.74942"
         d="m 155.96976,125.2398 a 12.599202,12.315875 0 0 1 -12.5992,12.31587 12.599202,12.315875 0 0 1 -12.5992,-12.31587 12.599202,12.315875 0 0 1 12.5992,-12.31588 12.599202,12.315875 0 0 1 12.5992,12.31588 z" />
      <path
         id="path3617-7"
         style="fill:#91cbd7;stroke-width:2.74942"
         d="m 118.70827,169.52454 a 12.599202,12.315875 0 0 1 -12.5992,12.31587 12.599202,12.315875 0 0 1 -12.599202,-12.31587 12.599202,12.315875 0 0 1 12.599202,-12.31588 12.599202,12.315875 0 0 1 12.5992,12.31588 z" />
      <path
         id="path3617-00"
         style="fill:#ed6571;stroke-width:2.74942"
         d="m 118.97637,127.86021 a 12.599202,12.315875 0 0 1 -12.5992,12.31587 12.599202,12.315875 0 0 1 -12.599205,-12.31587 12.599202,12.315875 0 0 1 12.599205,-12.31588 12.599202,12.315875 0 0 1 12.5992,12.31588 z" />
      <path
         id="path3617-2"
         style="fill:#91cbd7;stroke-width:2.74942"
         d="M 76.621594,97.201553 A 12.599202,12.315875 0 0 1 64.022392,109.51743 12.599202,12.315875 0 0 1 51.42319,97.201553 12.599202,12.315875 0 0 1 64.022392,84.885678 12.599202,12.315875 0 0 1 76.621594,97.201553 Z" />
      <path
         id="path3617-009"
         style="fill:#4e9bb9;stroke-width:2.74942"
         d="M 77.425778,144.89281 A 12.599202,12.315875 0 0 1 64.826576,157.20868 12.599202,12.315875 0 0 1 52.227374,144.89281 12.599202,12.315875 0 0 1 64.826576,132.57693 12.599202,12.315875 0 0 1 77.425778,144.89281 Z" />
      <path
         style="fill:#000000;fill-opacity:0;fill-rule:evenodd;stroke:#664670;stroke-width:2.74942;stroke-linecap:butt;stroke-linejoin:miter;stroke-miterlimit:4;stroke-dasharray:none;stroke-opacity:1;paint-order:normal"
         d="M 76.515895,95.61137 102.99797,92.240711"
         id="path4815" />
      <path
         style="fill:#000000;fill-opacity:0;fill-rule:evenodd;stroke:#664670;stroke-width:2.74942;stroke-linecap:butt;stroke-linejoin:miter;stroke-miterlimit:4;stroke-dasharray:none;stroke-opacity:1;paint-order:normal"
         d="m 135.36726,134.75161 -21.25489,25.26112"
         id="path4817" />
      <path
         style="fill:#000000;fill-opacity:0;fill-rule:evenodd;stroke:#664670;stroke-width:2.74942;stroke-linecap:butt;stroke-linejoin:miter;stroke-miterlimit:4;stroke-dasharray:none;stroke-opacity:1;paint-order:normal"
         d="m 106.18832,157.20914 0.1096,-17.03353"
         id="path4819" />
      <path
         style="fill:#000000;fill-opacity:0;fill-rule:evenodd;stroke:#664670;stroke-width:2.74942;stroke-linecap:butt;stroke-linejoin:miter;stroke-miterlimit:4;stroke-dasharray:none;stroke-opacity:1;paint-order:normal"
         d="m 118.94333,126.97009 11.86107,-0.84017"
         id="path4821" />
      <path
         style="fill:#000000;fill-opacity:0;fill-rule:evenodd;stroke:#664670;stroke-width:2.74942;stroke-linecap:butt;stroke-linejoin:miter;stroke-miterlimit:4;stroke-dasharray:none;stroke-opacity:1;paint-order:normal"
         d="M 96.251893,120.53099 74.147666,104.53077"
         id="path4823" />
      <path
         style="fill:#000000;fill-opacity:0;fill-rule:evenodd;stroke:#664670;stroke-width:2.74942;stroke-linecap:butt;stroke-linejoin:miter;stroke-miterlimit:4;stroke-dasharray:none;stroke-opacity:1;paint-order:normal"
         d="M 73.321698,135.79786 106.99635,99.74548"
         id="path4825" />
      <path
         style="fill:#000000;fill-opacity:0;fill-rule:evenodd;stroke:#664670;stroke-width:2.74942;stroke-linecap:butt;stroke-linejoin:miter;stroke-miterlimit:4;stroke-dasharray:none;stroke-opacity:1;paint-order:normal"
         d="m 123.28863,100.32437 12.28477,15.24158"
         id="path4827" />
      <path
         style="fill:#000000;fill-opacity:0;fill-rule:evenodd;stroke:#664670;stroke-width:2.74942;stroke-linecap:butt;stroke-linejoin:miter;stroke-miterlimit:4;stroke-dasharray:none;stroke-opacity:1;paint-order:normal"
         d="M 99.879551,158.81955 70.251911,107.90654"
         id="path4829" />
    </g>
  </g>
</svg>
